name analog
datacolumns 19
datarows 37
range 0.2315 0.2495
endheader
time	ground_force_vx	ground_force_vy	ground_force_vz	ground_force_px	ground_force_py	ground_force_pz	l_ground_force_vx	l_ground_force_vy	l_ground_force_vz	l_ground_force_px	l_ground_force_py	l_ground_force_pz	ground_torque_x	ground_torque_y	ground_torque_z	l_ground_torque_x	l_ground_torque_y	l_ground_torque_z
0.2315	-0.0	-0.0	-0.0	3.6500802040100098	39.03817367553711	-374.0101013183594	-6.2964863777160645	-36.73984909057617	-320.1642761230469	-0.0	-0.0	-0.0	-0.0	-0.0	-0.0	75279.390625	-3004.836181640625	-3307.510986328125
0.232	-0.0	-0.0	-0.0	3.2079079151153564	38.85810470581055	-373.3148498535156	-5.858766078948975	-36.03812789916992	-319.8342590332031	-0.0	-0.0	-0.0	-0.0	-0.0	-0.0	75566.71875	-3327.119140625	-3303.773193359375
0.2325	-0.0	-0.0	-0.0	3.0375568866729736	39.12209701538086	-373.6574096679688	-5.503773212432861	-36.74274444580078	-319.8228759765625	-0.0	-0.0	-0.0	-0.0	-0.0	-0.0	75669.5546875	-3598.30419921875	-3039.908203125
0.233	-0.0	-0.0	-0.0	2.9422624111175537	38.50180816650391	-372.6048583984375	-5.765312194824219	-36.38764953613281	-318.7789611816406	-0.0	-0.0	-0.0	-0.0	-0.0	-0.0	75521.8046875	-3845.671142578125	-3097.80859375
0.2335	-0.0	-0.0	-0.0	3.383439064025879	38.94834899902344	-374.0208129882813	-6.0306077003479	-36.38853454589844	-321.219482421875	-0.0	-0.0	-0.0	-0.0	-0.0	-0.0	76181.71875	-4207.58935546875	-3157.054443359375
0.234	-0.0	-0.0	-0.0	3.0323750972747803	38.682594299316406	-372.9518127441406	-5.679140567779541	-36.2985725402832	-320.5309143066406	-0.0	-0.0	-0.0	-0.0	-0.0	-0.0	76638.296875	-4419.935546875	-3155.9912109375
0.23450000000000001	-0.0	-0.0	-0.0	3.743118286132813	38.59941864013672	-375.7657470703125	-6.119468688964844	-36.301002502441406	-321.5748596191406	-0.0	-0.0	-0.0	-0.0	-0.0	-0.0	76771.7109375	-4794.134765625	-3039.3046875
0.23500000000000001	-0.0	-0.0	-0.0	3.5698344707489014	38.41591262817383	-373.29443359375	-6.379672527313232	-36.12506866455078	-324.3441467285156	-0.0	-0.0	-0.0	-0.0	-0.0	-0.0	77355.1953125	-5155.86865234375	-3039.194091796875
0.23550000000000001	-0.0	-0.0	-0.0	4.634180068969727	38.41656875610352	-369.1000061035156	-5.854183673858643	-36.47541046142578	-322.28131103515625	-0.0	-0.0	-0.0	-0.0	-0.0	-0.0	77311.9921875	-5189.833984375	-2978.37109375
0.23600000000000002	-0.0	-0.0	-0.0	5.00093412399292	38.23501968383789	-371.8781127929688	-4.791763782501221	-36.4741096496582	-324.0072631835937	-0.0	-0.0	-0.0	-0.0	-0.0	-0.0	77969.4921875	-5593.13623046875	-2741.302001953125
0.23650000000000002	-0.0	-0.0	-0.0	6.157947063446045	37.5226936340332	-368.03265380859375	-4.610347747802734	-36.12422180175781	-326.0947570800781	-0.0	-0.0	-0.0	-0.0	-0.0	-0.0	78283.625	-6161.7021484375	-2533.4609375
0.23700000000000002	-0.0	-0.0	-0.0	7.314682483673096	37.523902893066406	-368.3621215820313	-3.285435438156128	-35.507816314697266	-326.1051330566406	-0.0	-0.0	-0.0	-0.0	-0.0	-0.0	78776.1875	-6557.60302734375	-2088.88720703125
0.23750000000000002	-0.0	-0.0	-0.0	7.676437377929687	36.72280883789063	-367.6646423339844	-2.924506902694702	-35.59129333496094	-326.456787109375	-0.0	-0.0	-0.0	-0.0	-0.0	-0.0	78912.59375	-6825.611328125	-2086.41943359375
0.23800000000000002	-0.0	-0.0	-0.0	8.833856582641602	36.45433807373047	-368.0154724121094	-2.039243459701538	-35.326473236083984	-325.7671813964844	-0.0	-0.0	-0.0	-0.0	-0.0	-0.0	79227.5234375	-7244.458984375	-1731.122314453125
0.23850000000000002	-0.0	-0.0	-0.0	9.72394561767578	36.276554107666016	-370.4952392578125	-1.2408984899520874	-34.88706970214844	-325.06640625	-0.0	-0.0	-0.0	-0.0	-0.0	-0.0	79399.578125	-7492.33740234375	-1316.1934814453125
0.23900000000000002	-0.0	-0.0	-0.0	9.991137504577637	36.27431869506836	-367.3158264160156	-0.3553319275379181	-34.26930236816406	-325.06787109375	-0.0	-0.0	-0.0	-0.0	-0.0	-0.0	79629.1796875	-8080.55126953125	-1224.2021484375
0.23950000000000002	-0.0	-0.0	-0.0	9.369518280029297	36.365604400634766	-370.8341369628906	-0.5304595232009888	-34.092620849609375	-325.0619506835937	-0.0	-0.0	-0.0	-0.0	-0.0	-0.0	79357.09375	-8673.1923828125	-1046.2218017578125
0.24	-0.0	-0.0	-0.0	8.832969665527344	36.36407470703125	-372.9505615234375	0.7088351845741272	-34.0034294128418	-325.402587890625	-0.0	-0.0	-0.0	-0.0	-0.0	-0.0	79220.96875	-8894.8466796875	-719.9273681640625
0.2405	-0.0	-0.0	-0.0	8.38409423828125	36.89829254150391	-370.13525390625	1.1524640321731567	-33.74004364013672	-323.6605224609375	-0.0	-0.0	-0.0	-0.0	-0.0	-0.0	79336.2265625	-9452.4814453125	-601.0311279296875
0.241	-0.0	-0.0	-0.0	7.225147724151611	36.63169479370117	-370.1301879882813	1.5070315599441528	-33.121681213378906	-323.3074951171875	-0.0	-0.0	-0.0	-0.0	-0.0	-0.0	79104.75	-10014.9169921875	-452.0672607421875
0.2415	-0.0	-0.0	-0.0	6.154688835144043	36.54374313354492	-371.544189453125	1.6864900588989258	-33.296627044677734	-322.2630920410156	-0.0	-0.0	-0.0	-0.0	-0.0	-0.0	79639.296875	-10586.3203125	-274.1244506835937
0.242	-0.0	-0.0	-0.0	4.996270656585693	36.276798248291016	-370.4895935058594	2.2168970108032227	-33.031150817871094	-322.26580810546875	-0.0	-0.0	-0.0	-0.0	-0.0	-0.0	79560.6796875	-10964.818359375	-125.46941375732422
0.2425	-0.0	-0.0	-0.0	4.372128486633301	36.275875091552734	-370.8373107910156	2.395951509475708	-33.03129959106445	-321.2244567871094	-0.0	-0.0	-0.0	-0.0	-0.0	-0.0	80087.9765625	-11304.521484375	52.47265625
0.243	-0.0	-0.0	-0.0	4.192231178283691	35.65282440185547	-369.07568359375	3.105957269668579	-33.12020492553711	-325.4075927734375	-0.0	-0.0	-0.0	-0.0	-0.0	-0.0	80887.484375	-11787.5341796875	290.0757751464844
0.2435	-0.0	-0.0	-0.0	3.836191654205322	35.74241256713867	-370.8422546386719	3.5495715141296387	-32.94456100463867	-328.2032775878906	-0.0	-0.0	-0.0	-0.0	-0.0	-0.0	81803.9765625	-12111.29296875	320.58807373046875
0.244	-0.0	-0.0	-0.0	3.3010947704315186	35.56364440917969	-371.192138671875	3.016319274902344	-33.6514778137207	-329.9501037597656	-0.0	-0.0	-0.0	-0.0	-0.0	-0.0	81976.765625	-12547.392578125	438.609375
0.2445	-0.0	-0.0	-0.0	3.1221749782562256	35.29608917236328	-370.8399353027344	3.4593753814697266	-35.06348419189453	-330.30194091796875	-0.0	-0.0	-0.0	-0.0	-0.0	-0.0	82649.1171875	-12639.1240234375	349.3302917480469
0.245	-0.0	-0.0	-0.0	2.765410900115967	35.91963195800781	-370.1337890625	3.1932313442230225	-35.24044418334961	-334.4872436523437	-0.0	-0.0	-0.0	-0.0	-0.0	-0.0	83123.6953125	-12711.1669921875	438.0418090820313
0.2455	-0.0	-0.0	-0.0	2.2302615642547607	36.18694305419922	-370.132568359375	2.660857677459717	-35.593589782714844	-336.2334289550781	-0.0	-0.0	-0.0	-0.0	-0.0	-0.0	84266.671875	-12914.4189453125	348.698974609375
0.246	-0.0	-0.0	-0.0	1.962668299674988	36.00886917114258	-370.132568359375	2.1289732456207275	-35.946956634521484	-339.7245483398437	-0.0	-0.0	-0.0	-0.0	-0.0	-0.0	84288.75	-12768.4208984375	81.39002227783203
0.2465	-0.0	-0.0	-0.0	1.5165786743164062	36.63222122192383	-370.48577880859375	2.129013061523437	-36.565189361572266	-341.4701843261719	-0.0	-0.0	-0.0	-0.0	-0.0	-0.0	85050.2109375	-13000.63671875	-67.0861587524414
0.247	-0.0	-0.0	-0.0	1.2496516704559326	36.00888442993164	-368.7218322753906	1.1534359455108645	-36.3003158569336	-342.1685791015625	-0.0	-0.0	-0.0	-0.0	-0.0	-0.0	85564.109375	-12996.1669921875	-127.02336883544922
0.2475	-0.0	-0.0	-0.0	1.3380192518234253	36.09726333618164	-369.7783203125	0.9758186340332032	-36.56509017944336	-343.9147033691406	-0.0	-0.0	-0.0	-0.0	-0.0	-0.0	85645.96875	-12889.435546875	-38.43100357055664
0.248	-0.0	-0.0	-0.0	1.6943416595458984	35.47455596923828	-366.9585266113281	0.709686279296875	-36.56562423706055	-344.2621459960937	-0.0	-0.0	-0.0	-0.0	-0.0	-0.0	86108.375	-12729.74609375	-157.06552124023438
0.2485	-0.0	-0.0	-0.0	1.6954041719436646	35.02946472167969	-364.4848937988281	0.5327145457267761	-36.56547546386719	-347.0555114746094	-0.0	-0.0	-0.0	-0.0	-0.0	-0.0	86309.2578125	-12564.4287109375	-246.12078857421875
0.249	-0.0	-0.0	-0.0	1.8731807470321653	34.228233337402344	-362.3616638183594	0.620788037776947	-36.21282577514648	-346.70758056640625	-0.0	-0.0	-0.0	-0.0	-0.0	-0.0	86552.2109375	-12849.400390625	-216.34214782714844
0.2495	-0.0	-0.0	-0.0	2.1405274868011475	34.581809997558594	-360.94677734375	0.4433441758155823	-36.56517791748047	-349.14666748046875	-0.0	-0.0	-0.0	-0.0	-0.0	-0.0	86574.59375	-12743.275390625	-275.9486083984375
